<svg xmlns="http://www.w3.org/2000/svg" viewBox="0 0 512 512">
  <rect width="512" height="512" rx="96" fill="#FAF7F1"/>
  <circle cx="256" cy="230" r="130" fill="none" stroke="#2B2A26" stroke-width="5"/>
  <!-- Leaf left top -->
  <g fill="none" stroke="#6F7D66" stroke-width="3" stroke-linecap="round">
    <path d="M140 160 Q110 130 90 150 Q70 170 100 180"/>
    <path d="M100 180 Q80 160 65 175 Q50 190 75 195"/>
    <path d="M130 140 Q115 110 95 120"/>
    <path d="M120 175 Q95 165 85 180"/>
    <!-- Stem left -->
    <path d="M140 160 Q125 185 130 210" stroke-width="2.5"/>
    <!-- Small buds left -->
    <ellipse cx="108" cy="138" rx="5" ry="8" transform="rotate(-30 108 138)"/>
    <ellipse cx="78" cy="178" rx="4" ry="7" transform="rotate(15 78 178)"/>
  </g>
  <!-- Leaf right bottom -->
  <g fill="none" stroke="#6F7D66" stroke-width="3" stroke-linecap="round">
    <path d="M372 300 Q402 330 422 310 Q442 290 412 280"/>
    <path d="M412 280 Q432 300 447 285 Q462 270 437 265"/>
    <path d="M382 320 Q397 350 417 340"/>
    <path d="M392 285 Q417 295 427 280"/>
    <!-- Stem right -->
    <path d="M372 300 Q387 275 382 250" stroke-width="2.5"/>
    <!-- Small flowers right -->
    <circle cx="430" cy="320" r="4" fill="#6F7D66" opacity="0.5"/>
    <path d="M425 315 Q430 308 435 315" stroke-width="2"/>
    <path d="M428 312 Q430 305 432 312" stroke-width="2"/>
  </g>
  <!-- Letters JF -->
  <text x="215" y="265" font-family="Georgia, 'Times New Roman', serif" font-size="145" font-weight="400" fill="#2B2A26" letter-spacing="-8">JF</text>
  <!-- JARDÍN FLORAL text -->
  <text x="256" y="415" font-family="'Segoe UI', Helvetica, sans-serif" font-size="32" font-weight="400" fill="#2B2A26" text-anchor="middle" letter-spacing="12">JARDÍN FLORAL</text>
</svg>
